<svg height="512" viewBox="0 0 60 50" width="512" xmlns="http://www.w3.org/2000/svg"><g id="022---Waste-Removal" fill="none"><path id="Shape" d="m19 36h27v7h-18.692-8.308z" fill="#2c3e50"/><path id="Shape" d="m59 32v10c0 .5522847-.4477153 1-1 1h-7l-6-3.46v-16.54c0-.5522847.4477153-1 1-1h8.32c.4098038-.0003967.7783727.249279.93.63l1.35 3.37z" fill="#35495e"/><path id="Shape" d="m59 33v9c0 .5522847-.4477153 1-1 1h-7l-2-1.15v-8.85z" fill="#2c3e50"/><path id="Shape" d="m10.73 35.03-1.73 7.97h-4c-.55228475 0-1-.4477153-1-1v-1.46c-.00071348-.3374777-.16944259-.6524387-.45-.84l-2.1-1.4c-.28055741-.1875613-.44928652-.5025223-.45-.84v-2.46h9.58z" fill="#2c3e50"/><path id="Shape" d="m14 19.9999958-3.27 15.0300042-.15-.03h-9.58v-2.59c-.00064485-.2626887.10377223-.5147299.29-.7l5.48-5.48c.15060423-.1480474.24889421-.341117.28-.55l.81-4.84c.07865688-.4852851.49838375-.841417.99-.84z" fill="#3f5c6c"/><path id="Shape" d="m17 43h2l4-4h15.59c.2621467-.0020603.5132-.1060681.7-.29l1.42-1.42c.1839319-.1868.2879397-.4378533.29-.7v-15.64l-4.14-.95h-23.38l-4.13 21.38v.01z" fill="#f0c419"/><circle id="Oval" cx="13" cy="43" fill="#3f5c6c" r="4"/><circle id="Oval" cx="23" cy="43" fill="#3f5c6c" r="4"/><path id="Shape" d="m59 32v1h-10v-6c0-.5522847.4477153-1 1-1h6.6z" fill="#2fa8cc"/><path id="Shape" d="m54 38h-1c-.5522847 0-1-.4477153-1-1s.4477153-1 1-1h1c.5522847 0 1 .4477153 1 1s-.4477153 1-1 1z" fill="#35495e"/><circle id="Oval" cx="13" cy="43" fill="#547580" r="1"/><circle id="Oval" cx="23" cy="43" fill="#547580" r="1"/><path id="Shape" d="m18 25h-1c-.5522847 0-1-.4477153-1-1s.4477153-1 1-1h1c.5522847 0 1 .4477153 1 1s-.4477153 1-1 1z" fill="#f3d55b"/><path id="Shape" d="m29 25h-7c-.5522847 0-1-.4477153-1-1s.4477153-1 1-1h7c.5522847 0 1 .4477153 1 1s-.4477153 1-1 1z" fill="#f3d55b"/><g fill="#7f6e5d"><path id="Shape" d="m53 50h-46c-.55228475 0-1-.4477153-1-1s.44771525-1 1-1h46c.5522847 0 1 .4477153 1 1s-.4477153 1-1 1z"/><path id="Shape" d="m3 50h-2c-.55228475 0-1-.4477153-1-1s.44771525-1 1-1h2c.55228475 0 1 .4477153 1 1s-.44771525 1-1 1z"/><path id="Shape" d="m59 50h-2c-.5522847 0-1-.4477153-1-1s.4477153-1 1-1h2c.5522847 0 1 .4477153 1 1s-.4477153 1-1 1z"/></g><path id="Shape" d="m41.811 12.19-12.5 19.742c-.5828451.9344279-.3065884 2.1637706.62 2.759.9336837.5877611 2.1667603.3112124 2.76-.619l13.24-20.908 4.342-6.864z" fill="#2c3e50"/><path id="Shape" d="m50.336 6.205-4.406 6.957c-.270033.4258645-.814895.5840502-1.271.369l-5.47-2.576c-.259623-.1221594-.4542649-.3499538-.5344281-.625455-.0801632-.2755011-.0381236-.57216327.1154281-.814545l5.208-8.224c.1534416-.24248981.4036616-.40737663.6870156-.45272094.2833541-.0453443.5725335.03322406.7939844.21572094l4.668 3.846c.3881557.32041603.4776772.87939003.209 1.305z" fill="#35495e"/><circle id="Oval" cx="47" cy="43" fill="#3f5c6c" r="4"/><circle id="Oval" cx="47" cy="43" fill="#547580" r="1"/></g></svg>